<svg width="200" height="63" viewBox="0 0 200 63" fill="none" xmlns="http://www.w3.org/2000/svg">
<path d="M74.019 8.05939H77.6781L84.2062 16.5249L90.7351 8.05939H94.107V26.7129H90.0178V15.1262L84.2427 22.623L78.1081 15.0183V26.7129H74.019V8.05939Z" fill="#404042"/>
<path d="M101.317 17.35C101.317 18.1876 101.454 18.9646 101.729 19.6818C102.004 20.3999 102.393 21.0208 102.895 21.5479C103.398 22.0734 104 22.486 104.706 22.7848C105.412 23.0837 106.195 23.2331 107.056 23.2331C107.917 23.2331 108.7 23.0953 109.406 22.8205C110.111 22.5457 110.714 22.1523 111.217 21.6376C111.719 21.1221 112.115 20.507 112.401 19.7898C112.687 19.0725 112.831 18.259 112.831 17.35C112.831 16.4419 112.682 15.6226 112.383 14.8937C112.084 14.1641 111.671 13.5423 111.146 13.0268C110.62 12.5138 110.01 12.1195 109.316 11.8439C108.622 11.5691 107.869 11.4313 107.056 11.4313C106.242 11.4313 105.484 11.5691 104.777 11.8439C104.072 12.1195 103.462 12.5138 102.949 13.0268C102.434 13.5423 102.034 14.1641 101.747 14.8937C101.46 15.6226 101.317 16.4419 101.317 17.35ZM97.0829 17.35C97.0829 15.9397 97.322 14.6414 97.801 13.4585C98.2791 12.2747 98.9607 11.252 99.8456 10.3912C100.73 9.53034 101.783 8.85462 103.003 8.36402C104.222 7.87426 105.573 7.62854 107.056 7.62854C108.514 7.62854 109.86 7.87426 111.091 8.36402C112.323 8.85462 113.381 9.53034 114.267 10.3912C115.15 11.252 115.839 12.2747 116.329 13.4585C116.819 14.6414 117.065 15.9397 117.065 17.35C117.065 18.7621 116.819 20.0587 116.329 21.2416C115.839 22.4254 115.15 23.4481 114.267 24.3089C113.381 25.1706 112.323 25.8405 111.091 26.3186C109.86 26.7968 108.514 27.0358 107.056 27.0358C105.597 27.0358 104.258 26.7968 103.038 26.3186C101.819 25.8405 100.766 25.1706 99.8813 24.3089C98.9964 23.4481 98.3082 22.4254 97.8184 21.2416C97.3278 20.0587 97.0829 18.7621 97.0829 17.35Z" fill="#404042"/>
<path d="M128.83 11.4313C127.634 11.4313 126.642 11.7368 125.852 12.3461C125.063 12.9562 124.478 13.6685 124.095 14.4812V20.9378C124.549 21.7032 125.172 22.2776 125.96 22.6595C126.749 23.043 127.598 23.2339 128.507 23.2339C130.181 23.2339 131.525 22.696 132.543 21.6193C133.558 20.5435 134.068 19.1323 134.068 17.3857C134.068 15.4972 133.601 14.0329 132.668 12.9919C131.736 11.9518 130.456 11.4313 128.83 11.4313ZM120.006 8.05937H124.095V9.74534C124.693 9.00487 125.47 8.46696 126.426 8.13076C127.383 7.79705 128.328 7.62854 129.261 7.62854C130.646 7.62854 131.902 7.86263 133.028 8.32916C134.15 8.79568 135.102 9.4465 135.879 10.2833C136.656 11.1208 137.253 12.1128 137.672 13.2609C138.09 14.4089 138.301 15.6774 138.301 17.0636C138.301 18.4981 138.079 19.8196 137.636 21.0275C137.194 22.2353 136.56 23.2879 135.735 24.1844C134.91 25.0809 133.924 25.7799 132.776 26.2821C131.627 26.7843 130.361 27.0358 128.974 27.0358C127.921 27.0358 126.946 26.9039 126.05 26.6415C125.153 26.3784 124.501 25.9957 124.095 25.4935V33.8876H120.006V8.05937Z" fill="#404042"/>
<path d="M149.779 11.3242C148.392 11.3242 147.262 11.6712 146.389 12.3644C145.515 13.0583 144.948 14.0146 144.684 15.2332H154.478C154.31 13.9432 153.814 12.9687 152.989 12.3104C152.164 11.6529 151.094 11.3242 149.779 11.3242ZM157.958 23.2339C157.001 24.5247 155.883 25.481 154.603 26.1028C153.324 26.7246 151.92 27.0358 150.388 27.0358C148.882 27.0358 147.519 26.8084 146.3 26.3543C145.08 25.9002 144.027 25.2486 143.143 24.3986C142.257 23.551 141.576 22.5341 141.098 21.3504C140.619 20.1666 140.38 18.8335 140.38 17.35C140.38 15.9878 140.584 14.7136 140.99 13.5307C141.397 12.3461 142.006 11.3184 142.82 10.4451C143.633 9.57184 144.637 8.88534 145.832 8.38312C147.029 7.8809 148.403 7.62854 149.958 7.62854C151.202 7.62854 152.361 7.83192 153.438 8.23951C154.514 8.64543 155.44 9.21987 156.218 9.96034C156.995 10.7025 157.605 11.599 158.048 12.6516C158.49 13.7042 158.712 14.8755 158.712 16.1663C158.712 16.8121 158.639 17.6854 158.496 18.7853H144.649C144.815 20.2687 145.438 21.3803 146.515 22.1216C147.591 22.8637 148.905 23.2339 150.46 23.2339C151.465 23.2339 152.409 23.0131 153.294 22.5698C154.179 22.1282 154.896 21.5239 155.447 20.7585L157.958 23.2339Z" fill="#404042"/>
<path d="M77.6773 45.5334H86.3943C86.083 44.099 85.4372 43.0763 84.4568 42.4661C83.4756 41.8568 82.2446 41.5513 80.7611 41.5513C79.8298 41.5513 78.8544 41.7547 77.8383 42.1615C76.8214 42.5682 75.9664 43.2738 75.2732 44.2783L72.2964 42.0901C74.4 39.1971 77.3303 37.7494 81.0841 37.7494C82.5426 37.7494 83.8708 37.9768 85.0686 38.4309C86.2656 38.8858 87.2859 39.5366 88.1301 40.3858C88.9735 41.2351 89.6251 42.2569 90.0825 43.4531C90.5408 44.6493 90.7699 45.9883 90.7699 47.4701C90.7699 48.8339 90.5466 50.1073 90.1008 51.2911C89.6542 52.4748 89.0092 53.5034 88.1658 54.3758C87.3216 55.2499 86.2889 55.9306 85.0686 56.4204C83.8475 56.9102 82.4596 57.1559 80.9056 57.1559C80.0448 57.1559 79.1897 57.0778 78.3405 56.9234C77.4913 56.7674 76.6844 56.5283 75.9191 56.2054C75.1537 55.8833 74.4606 55.4591 73.838 54.9312C73.2162 54.4057 72.7024 53.7723 72.2964 53.031L75.2732 50.8785C75.9191 51.7875 76.6961 52.4275 77.605 52.7978C78.514 53.1688 79.4936 53.3539 80.547 53.3539C82.2205 53.3539 83.5653 52.9654 84.5822 52.1876C85.5982 51.4106 86.2266 50.3763 86.4657 49.0846H77.6773V45.5334Z" fill="#404042"/>
<path d="M93.6405 38.1793H97.2997L103.827 46.6448L110.357 38.1793H113.728V56.8329H109.639V45.2461L103.863 52.7429L97.7288 45.1382V56.8329H93.6405V38.1793Z" fill="#404042"/>
<path d="M120.939 47.4701C120.939 48.3076 121.076 49.0846 121.351 49.8019C121.626 50.5199 122.016 51.1417 122.517 51.668C123.02 52.1934 123.623 52.606 124.328 52.9048C125.035 53.2045 125.818 53.3531 126.678 53.3531C127.539 53.3531 128.322 53.2153 129.028 52.9405C129.733 52.6658 130.337 52.2723 130.84 51.7576C131.341 51.2421 131.737 50.627 132.023 49.9098C132.31 49.1925 132.453 48.379 132.453 47.4701C132.453 46.5619 132.304 45.7426 132.005 45.0137C131.706 44.2841 131.294 43.6623 130.768 43.1468C130.242 42.6338 129.632 42.2395 128.939 41.9639C128.245 41.6891 127.491 41.5513 126.678 41.5513C125.866 41.5513 125.106 41.6891 124.4 41.9639C123.694 42.2395 123.086 42.6338 122.571 43.1468C122.056 43.6623 121.655 44.2841 121.37 45.0137C121.083 45.7426 120.939 46.5619 120.939 47.4701ZM116.705 47.4701C116.705 46.0597 116.944 44.7614 117.424 43.5785C117.902 42.3947 118.583 41.372 119.468 40.5112C120.353 39.6504 121.405 38.9746 122.624 38.484C123.844 37.9943 125.195 37.7494 126.678 37.7494C128.137 37.7494 129.482 37.9943 130.714 38.484C131.945 38.9746 133.003 39.6504 133.89 40.5112C134.773 41.372 135.461 42.3947 135.952 43.5785C136.441 44.7614 136.687 46.0597 136.687 47.4701C136.687 48.8821 136.441 50.1787 135.952 51.3616C135.461 52.5454 134.773 53.5681 133.89 54.4289C133.003 55.2906 131.945 55.9605 130.714 56.4386C129.482 56.9168 128.137 57.155 126.678 57.155C125.219 57.155 123.88 56.9168 122.66 56.4386C121.44 55.9605 120.389 55.2906 119.504 54.4289C118.619 53.5681 117.931 52.5454 117.441 51.3616C116.95 50.1787 116.705 48.8821 116.705 47.4701Z" fill="#404042"/>
<path d="M139.628 38.1793H143.717V53.0309H152.362V38.1793H156.452V53.0309H158.962V61.1013H155.161V56.8329H139.628V38.1793Z" fill="#404042"/>
<path d="M161.078 56.8329V38.1793H165.167V50.3405L175.068 38.1793H178.619V56.8329H174.529V44.7082L164.629 56.8329H161.078Z" fill="#404042"/>
<path d="M189.059 30.2526C189.082 30.9698 189.31 31.5558 189.74 32.0099C190.171 32.4648 190.804 32.6914 191.641 32.6914C192.453 32.6914 193.064 32.4706 193.47 32.0282C193.877 31.5857 194.08 30.9939 194.08 30.2526H197.812C197.788 31.1615 197.608 31.9684 197.273 32.674C196.938 33.3796 196.489 33.9657 195.928 34.4322C195.366 34.8971 194.714 35.2507 193.973 35.4898C193.231 35.7288 192.453 35.8484 191.641 35.8484C190.756 35.8484 189.932 35.7347 189.166 35.5072C188.401 35.2806 187.737 34.9336 187.175 34.4679C186.613 34.0014 186.165 33.4153 185.83 32.7089C185.495 32.0049 185.315 31.1848 185.292 30.2526H189.059ZM182.459 56.8337V38.1802H186.547V50.3406L196.447 38.1802H200V56.8337H195.91V44.7082L186.009 56.8337H182.459Z" fill="#404042"/>
<path d="M30.364 0.344177C13.3656 0.728102 -0.29233 15.0708 0.00475633 32.0806C0.290405 49.0035 14.1007 62.6433 31.1071 62.6558C37.4618 62.6138 43.093 60.7679 47.5335 57.9304C52.2986 54.8735 54.7818 50.9246 55.7425 49.1639C56.2359 48.2155 55.1253 47.8318 54.3028 48.2935C42.2822 55.6186 30.4763 53.5077 24.4943 46.6546C20.2743 41.7778 19.0108 33.8615 23.7207 29.0451C29.1812 23.5557 36.8434 27.4049 36.5665 32.3441C36.4593 34.2132 35.7363 35.766 33.7655 35.8931C33.0217 35.9469 32.5533 35.7436 32.1339 35.578C31.4198 35.1862 30.8201 35.6627 30.8362 36.4556C30.9243 37.4599 31.4203 38.5429 32.6338 39.7081C36.1532 42.9547 41.9136 41.7543 44.211 40.0824C46.4592 38.3729 47.5625 36.0192 47.9086 34.9577C48.1381 34.3533 48.4969 34.3944 48.7049 34.632C49.0225 35.0319 49.2271 35.5791 49.1827 36.2475C49.1496 37.0027 48.9086 37.5203 48.5579 37.8756C48.181 38.367 48.2233 39.0239 49.0768 39.1323C49.6583 39.1882 50.4021 39.1344 51.3721 38.7858C54.852 37.7091 56.0363 33.6222 56.0667 30.8356C56.0654 29.8199 56.2311 29.4005 56.5292 29.3171C56.9634 29.2599 57.3679 29.6483 57.4069 30.6149C57.4835 31.5323 58.4615 31.5802 58.8533 30.866C60.3942 28.1455 60.9359 20.5214 56.5282 13.5492C50.93 5.58552 41.5858 0.367777 31.1192 0.377205C30.8964 0.362383 30.6359 0.396696 30.364 0.344177Z" fill="url(#paint0_linear_803_1986)"/>
<defs>
<linearGradient id="paint0_linear_803_1986" x1="11.7873" y1="56.2631" x2="49.4836" y2="7.12972" gradientUnits="userSpaceOnUse">
<stop stop-color="#52D7FF"/>
<stop offset="0.29" stop-color="#389EEC"/>
<stop offset="1" stop-color="#EC3082"/>
</linearGradient>
</defs>
</svg>
