<svg width="36" height="36" viewBox="0 0 36 36" fill="none" xmlns="http://www.w3.org/2000/svg">
<rect width="36" height="36" rx="6" fill="#3C3D42"/>
<path d="M16.8548 8.44438L17.8002 10.6747C18.2122 11.6465 17.9839 12.7894 17.2348 13.5L15.4682 15.1764C15.2691 15.3656 15.1657 15.6401 15.2102 15.9107C15.3807 16.9453 15.7586 17.9655 16.3438 18.972C16.9279 19.9763 17.6391 20.8311 18.4778 21.5356C18.7 21.7221 19.0086 21.7705 19.2836 21.6786L21.3445 20.9911C22.2932 20.6749 23.3261 21.0384 23.908 21.8931L25.2638 23.8847C25.9403 24.8785 25.8188 26.2492 24.9794 27.0918L24.0796 27.9949C23.1842 28.8936 21.9055 29.2197 20.7224 28.8507C17.9295 27.9795 15.362 25.3934 13.019 21.0918C10.6727 16.7841 9.84494 13.1288 10.5352 10.1268C10.8256 8.86348 11.7249 7.85752 12.8991 7.48242L14.0833 7.10402C15.1943 6.75036 16.3796 7.32347 16.8548 8.44438Z" fill="white"/>
</svg>
