<svg width="36" height="36" viewBox="0 0 36 36" fill="none" xmlns="http://www.w3.org/2000/svg">
<rect width="36" height="36" rx="6" fill="#3C3D42"/>
<path d="M18 7C12.8443 7 8.65002 11.1943 8.65002 16.35C8.65002 18.5698 9.44697 20.7242 10.9012 22.4264C11.0673 22.6151 14.986 27.0679 16.295 28.3158C16.773 28.7718 17.3862 29 18 29C18.6138 29 19.2271 28.7718 19.7056 28.3158C21.2274 26.8644 24.9438 22.604 25.1066 22.417C26.5531 20.7241 27.35 18.5698 27.35 16.35C27.35 11.1943 23.1557 7 18 7ZM18 19.1C16.4815 19.1 15.25 17.8686 15.25 16.35C15.25 14.8315 16.4815 13.6 18 13.6C19.5186 13.6 20.75 14.8315 20.75 16.35C20.75 17.8686 19.5186 19.1 18 19.1Z" fill="white"/>
</svg>
