<svg width="36" height="36" viewBox="0 0 36 36" fill="none" xmlns="http://www.w3.org/2000/svg">
<rect width="36" height="36" rx="6" fill="#3C3D42"/>
<path d="M18 7C11.9375 7 7 11.9375 7 18C7 24.0625 11.9375 29 18 29H23.5V26.8H18C13.1263 26.8 9.2 22.8737 9.2 18C9.2 13.1263 13.1263 9.2 18 9.2C22.8737 9.2 26.8 13.1263 26.8 18V19.65C26.8 20.5749 26.0749 21.3 25.15 21.3C24.2251 21.3 23.5 20.5749 23.5 19.65V18C23.5 14.9755 21.0245 12.5 18 12.5C14.9755 12.5 12.5 14.9755 12.5 18C12.5 21.0245 14.9755 23.5 18 23.5C19.5549 23.5 20.9566 22.8388 21.9596 21.792C22.6538 22.8189 23.8275 23.5 25.15 23.5C27.2633 23.5 29 21.7633 29 19.65V18C29 11.9375 24.0625 7 18 7ZM18 14.7C19.8356 14.7 21.3 16.1644 21.3 18C21.3 19.8356 19.8356 21.3 18 21.3C16.1644 21.3 14.7 19.8356 14.7 18C14.7 16.1644 16.1644 14.7 18 14.7Z" fill="white"/>
</svg>
