<svg width="36" height="36" viewBox="0 0 36 36" fill="none" xmlns="http://www.w3.org/2000/svg">
<rect width="36" height="36" rx="6" fill="#3C3D42"/>
<path d="M28.8814 23.3532C27.9829 21.7362 25.6685 19.7932 24.713 18.9477C24.4515 18.7162 24.4235 18.3157 24.6615 18.0597C26.4849 16.1003 27.9434 13.8488 28.4454 12.4883C28.6669 11.8873 28.2084 11.2523 27.5624 11.2523H25.686C25.0675 11.2523 24.7055 11.4743 24.533 11.8278C23.0175 14.9333 21.7175 16.2773 20.8075 17.0628C20.298 17.5028 19.5035 17.1383 19.5035 16.4688C19.5035 15.1788 19.5035 13.5113 19.5035 12.3288C19.5035 11.7553 19.0345 11.2913 18.456 11.2913L15.0281 11.2523C14.5966 11.2523 14.3501 11.7408 14.6091 12.0833L15.1751 12.8958C15.3881 13.1773 15.5031 13.5198 15.5031 13.8713L15.5001 17.5303C15.5001 18.1667 14.7286 18.4777 14.2706 18.0317C12.7211 16.5228 11.3766 13.4413 10.8926 11.9678C10.7526 11.5413 10.3531 11.2533 9.90015 11.2523L8.05168 11.2478C7.35818 11.2478 6.85119 11.9053 7.03969 12.5673C8.72867 18.4957 12.1941 24.1357 18.37 24.7472C18.9785 24.8072 19.5035 24.3172 19.5035 23.7107V21.7877C19.5035 21.2362 19.936 20.7622 20.492 20.7482C20.5115 20.7477 20.531 20.7477 20.5505 20.7477C22.184 20.7477 24.0135 23.1252 24.6535 24.2372C24.8375 24.5572 25.1815 24.7522 25.5535 24.7522H28.0399C28.7654 24.7522 29.2309 23.9827 28.8814 23.3532Z" fill="white"/>
</svg>
