<svg width="36" height="36" viewBox="0 0 36 36" fill="none" xmlns="http://www.w3.org/2000/svg">
<rect width="36" height="36" rx="6" fill="#3C3D42"/>
<path d="M9.34765 16.8326C15.502 14.1252 23.4661 10.8242 24.5654 10.3674C27.4492 9.17158 28.334 9.40075 27.8928 12.0489C27.576 13.9523 26.6618 20.254 25.9331 24.1764C25.5007 26.5023 24.5307 26.778 23.0053 25.7717C22.2718 25.2874 18.5693 22.839 17.7657 22.2642C17.0322 21.7402 16.0205 21.11 17.2893 19.8686C17.7408 19.4265 20.7004 16.6005 23.0063 14.4009C23.3084 14.112 22.9289 13.6375 22.5803 13.8691C19.4723 15.9301 15.1631 18.7909 14.6147 19.1635C13.7861 19.7261 12.9904 19.9842 11.562 19.5739C10.4827 19.2639 9.42845 18.8942 9.0181 18.7531C7.4379 18.2106 7.81299 17.5079 9.34765 16.8326Z" fill="white"/>
</svg>
